<?xml version="1.0" encoding="UTF-8"?>
<svg version="1.1" xmlns="http://www.w3.org/2000/svg" width="512" height="512">
<path d="M0 0 C1.48811188 -0.0129007 1.48811188 -0.0129007 3.00628662 -0.02606201 C4.63014282 -0.03245193 4.63014282 -0.03245193 6.2868042 -0.03897095 C7.43211609 -0.04714844 8.57742798 -0.05532593 9.75744629 -0.06375122 C13.55466189 -0.08859513 17.35183994 -0.10512485 21.14910889 -0.11953735 C22.44937767 -0.12486103 23.74964645 -0.13018471 25.08931732 -0.13566971 C30.56243418 -0.15690333 36.03553893 -0.17602911 41.50868607 -0.1872921 C49.3139195 -0.20346583 57.11864996 -0.23647748 64.9236939 -0.29369295 C70.43056043 -0.33266053 75.93729409 -0.35195687 81.44429469 -0.35721266 C84.72247276 -0.36083356 87.99999743 -0.37507974 91.27805328 -0.4053154 C114.73210685 -0.60918665 132.06976376 2.15631543 149.78973389 18.7828064 C161.8615664 31.33007067 167.37598169 46.74226136 167.36151123 63.87142944 C167.36822845 65.02214432 167.37494568 66.17285919 167.38186646 67.35844421 C167.40080493 71.14838018 167.40476879 74.93813861 167.40692139 78.7281189 C167.4117256 80.70602914 167.41653374 82.68393941 167.42184222 84.66184837 C167.43808605 90.87885716 167.44301499 97.09580811 167.44158936 103.31283569 C167.44039005 109.69421592 167.46145859 116.07525679 167.49307668 122.45655125 C167.51936697 127.96176935 167.52995129 133.46687751 167.52867854 138.97215778 C167.52817246 142.24838388 167.5355425 145.5242435 167.55503464 148.80042076 C167.57478705 152.46369363 167.56881913 156.12610941 167.55682373 159.78939819 C167.56806274 160.85217987 167.57930176 161.91496155 167.59088135 163.00994873 C167.4502825 180.03819053 159.8192377 195.52548411 147.96160889 207.4937439 C134.98291953 219.43764586 119.71728606 224.46931496 102.40765381 224.42855835 C100.70821373 224.43622475 100.70821373 224.43622475 98.97444153 224.44404602 C95.25005731 224.45788194 91.52585942 224.4569896 87.80145264 224.4546814 C85.19747347 224.45857186 82.59349493 224.46290726 79.98951721 224.46766663 C74.53838466 224.47585806 69.08730398 224.4749864 63.63616943 224.46957397 C57.3632976 224.46354071 51.09065044 224.47583652 44.81781691 224.49714404 C38.7507001 224.51698397 32.6836872 224.51992191 26.61654091 224.51640892 C24.05028061 224.51692016 21.48401658 224.52212059 18.91777611 224.53222084 C15.31917719 224.54464598 11.72108915 224.53775656 8.12249756 224.5262146 C7.07639313 224.53385834 6.0302887 224.54150208 4.95248413 224.54937744 C-12.54702499 224.42618194 -28.00082527 217.39904883 -40.27276611 205.0640564 C-49.49926843 194.95560901 -57.0067789 181.24312645 -57.07618713 167.20469666 C-57.08334244 166.20828659 -57.09049774 165.21187653 -57.09786987 164.18527222 C-57.10055878 163.09798828 -57.10324768 162.01070435 -57.10601807 160.89047241 C-57.11258926 159.74034164 -57.11916046 158.59021088 -57.12593079 157.40522766 C-57.14566165 153.59358656 -57.15732847 149.78198494 -57.16729736 145.9703064 C-57.17137289 144.66629316 -57.17544842 143.36227993 -57.17964745 142.01875114 C-57.19869614 135.82348282 -57.21292296 129.62822631 -57.22125942 123.43293434 C-57.2310048 116.31002967 -57.25725437 109.187438 -57.29776031 102.06464344 C-57.32807152 96.54253445 -57.34274273 91.02051433 -57.34604043 85.49832386 C-57.3483756 82.20860272 -57.35915204 78.91928936 -57.3825016 75.62964058 C-57.40700871 71.94680476 -57.40590593 68.26477209 -57.39898682 64.58187866 C-57.41179687 63.51281281 -57.42460693 62.44374695 -57.43780518 61.34228516 C-57.32023114 44.04116817 -49.65443621 29.18268197 -37.80010986 16.95858765 C-28.01225921 7.74855286 -13.71479066 0.08881709 0 0 Z M-17.30401611 43.40390015 C-24.24077113 52.28609071 -25.08003606 62.72366742 -25.07427979 73.58651733 C-25.0776384 74.50621307 -25.08099701 75.42590881 -25.0844574 76.37347412 C-25.09391819 79.39925506 -25.09590814 82.42498036 -25.09698486 85.45077515 C-25.10020113 87.56676251 -25.10356548 89.68274966 -25.10707092 91.79873657 C-25.11305023 96.23028071 -25.11491208 100.66180538 -25.11431885 105.09335327 C-25.11421736 110.74982175 -25.12786075 116.40616431 -25.14509106 122.062603 C-25.15625368 126.4328569 -25.15823674 130.80308078 -25.15770912 135.17334747 C-25.15888315 137.25757531 -25.16327227 139.34180407 -25.17104149 141.42601776 C-25.61203321 163.76882976 -25.61203321 163.76882976 -15.33135986 182.9703064 C-6.49685947 191.30355854 4.91837674 192.30530288 16.50360107 192.29916382 C17.42329681 192.30252243 18.34299255 192.30588104 19.29055786 192.30934143 C22.3163388 192.31880222 25.3420641 192.32079218 28.36785889 192.3218689 C30.48384626 192.32508516 32.5998334 192.32844951 34.71582031 192.33195496 C39.14736445 192.33793426 43.57888912 192.33979612 48.01043701 192.33920288 C53.66690549 192.3391014 59.32324805 192.35274479 64.97968674 192.36997509 C69.34994064 192.38113771 73.72016452 192.38312077 78.09043121 192.38259315 C80.17465905 192.38376719 82.25888781 192.3881563 84.3431015 192.39592552 C106.6859135 192.83691724 106.6859135 192.83691724 125.88739014 182.5562439 C134.22064228 173.7217435 135.22238662 162.3065073 135.21624756 150.72128296 C135.21960617 149.80158722 135.22296478 148.88189148 135.22642517 147.93432617 C135.23588596 144.90854523 135.23787592 141.88281994 135.23895264 138.85702515 C135.2421689 136.74103778 135.24553325 134.62505063 135.2490387 132.50906372 C135.255018 128.07751958 135.25687986 123.64599491 135.25628662 119.21444702 C135.25618514 113.55797855 135.26982853 107.90163598 135.28705883 102.2451973 C135.29822145 97.8749434 135.30020451 93.50471951 135.2996769 89.13445282 C135.30085093 87.05022498 135.30524004 84.96599622 135.31300926 82.88178253 C135.75400098 60.53897054 135.75400098 60.53897054 125.47332764 41.3374939 C116.63882724 33.00424175 105.22359104 32.00249741 93.6383667 32.00863647 C92.71867096 32.00527786 91.79897522 32.00191925 90.85140991 31.99845886 C87.82562897 31.98899807 84.79990368 31.98700812 81.77410889 31.9859314 C79.65812152 31.98271513 77.54213437 31.97935078 75.42614746 31.97584534 C70.99460332 31.96986603 66.56307865 31.96800418 62.13153076 31.96859741 C56.47506229 31.9686989 50.81871972 31.95505551 45.16228104 31.9378252 C40.79202714 31.92666258 36.42180325 31.92467952 32.05153656 31.92520714 C29.96730872 31.92403311 27.88307996 31.91964399 25.79886627 31.91187477 C2.19418898 31.40303459 2.19418898 31.40303459 -17.30401611 43.40390015 Z " fill="#000000" transform="translate(328.92901611328125,271.8460998535156)"/>
<path d="M0 0 C1.48811188 -0.0129007 1.48811188 -0.0129007 3.00628662 -0.02606201 C4.63014282 -0.03245193 4.63014282 -0.03245193 6.2868042 -0.03897095 C7.43211609 -0.04714844 8.57742798 -0.05532593 9.75744629 -0.06375122 C13.55466189 -0.08859513 17.35183994 -0.10512485 21.14910889 -0.11953735 C22.44937767 -0.12486103 23.74964645 -0.13018471 25.08931732 -0.13566971 C30.56243418 -0.15690333 36.03553893 -0.17602911 41.50868607 -0.1872921 C49.3139195 -0.20346583 57.11864996 -0.23647748 64.9236939 -0.29369295 C70.43056043 -0.33266053 75.93729409 -0.35195687 81.44429469 -0.35721266 C84.72247276 -0.36083356 87.99999743 -0.37507974 91.27805328 -0.4053154 C114.73210685 -0.60918665 132.06976376 2.15631543 149.78973389 18.7828064 C161.8615664 31.33007067 167.37598169 46.74226136 167.36151123 63.87142944 C167.36822845 65.02214432 167.37494568 66.17285919 167.38186646 67.35844421 C167.40080493 71.14838018 167.40476879 74.93813861 167.40692139 78.7281189 C167.4117256 80.70602914 167.41653374 82.68393941 167.42184222 84.66184837 C167.43808605 90.87885716 167.44301499 97.09580811 167.44158936 103.31283569 C167.44039005 109.69421592 167.46145859 116.07525679 167.49307668 122.45655125 C167.51936697 127.96176935 167.52995129 133.46687751 167.52867854 138.97215778 C167.52817246 142.24838388 167.5355425 145.5242435 167.55503464 148.80042076 C167.57478705 152.46369363 167.56881913 156.12610941 167.55682373 159.78939819 C167.56806274 160.85217987 167.57930176 161.91496155 167.59088135 163.00994873 C167.4502825 180.03819053 159.8192377 195.52548411 147.96160889 207.4937439 C134.98291953 219.43764586 119.71728606 224.46931496 102.40765381 224.42855835 C100.70821373 224.43622475 100.70821373 224.43622475 98.97444153 224.44404602 C95.25005731 224.45788194 91.52585942 224.4569896 87.80145264 224.4546814 C85.19747347 224.45857186 82.59349493 224.46290726 79.98951721 224.46766663 C74.53838466 224.47585806 69.08730398 224.4749864 63.63616943 224.46957397 C57.3632976 224.46354071 51.09065044 224.47583652 44.81781691 224.49714404 C38.7507001 224.51698397 32.6836872 224.51992191 26.61654091 224.51640892 C24.05028061 224.51692016 21.48401658 224.52212059 18.91777611 224.53222084 C15.31917719 224.54464598 11.72108915 224.53775656 8.12249756 224.5262146 C7.07639313 224.53385834 6.0302887 224.54150208 4.95248413 224.54937744 C-12.54702499 224.42618194 -28.00082527 217.39904883 -40.27276611 205.0640564 C-49.49926843 194.95560901 -57.0067789 181.24312645 -57.07618713 167.20469666 C-57.08334244 166.20828659 -57.09049774 165.21187653 -57.09786987 164.18527222 C-57.10055878 163.09798828 -57.10324768 162.01070435 -57.10601807 160.89047241 C-57.11258926 159.74034164 -57.11916046 158.59021088 -57.12593079 157.40522766 C-57.14566165 153.59358656 -57.15732847 149.78198494 -57.16729736 145.9703064 C-57.17137289 144.66629316 -57.17544842 143.36227993 -57.17964745 142.01875114 C-57.19869614 135.82348282 -57.21292296 129.62822631 -57.22125942 123.43293434 C-57.2310048 116.31002967 -57.25725437 109.187438 -57.29776031 102.06464344 C-57.32807152 96.54253445 -57.34274273 91.02051433 -57.34604043 85.49832386 C-57.3483756 82.20860272 -57.35915204 78.91928936 -57.3825016 75.62964058 C-57.40700871 71.94680476 -57.40590593 68.26477209 -57.39898682 64.58187866 C-57.41179688 63.51281281 -57.42460693 62.44374695 -57.43780518 61.34228516 C-57.32023114 44.04116817 -49.65443621 29.18268197 -37.80010986 16.95858765 C-28.01225921 7.74855286 -13.71479066 0.08881709 0 0 Z M-17.30401611 43.40390015 C-24.24077113 52.28609071 -25.08003606 62.72366742 -25.07427979 73.58651733 C-25.0776384 74.50621307 -25.08099701 75.42590881 -25.0844574 76.37347412 C-25.09391819 79.39925506 -25.09590814 82.42498036 -25.09698486 85.45077515 C-25.10020113 87.56676251 -25.10356548 89.68274966 -25.10707092 91.79873657 C-25.11305023 96.23028071 -25.11491208 100.66180538 -25.11431885 105.09335327 C-25.11421736 110.74982175 -25.12786075 116.40616431 -25.14509106 122.062603 C-25.15625368 126.4328569 -25.15823674 130.80308078 -25.15770912 135.17334747 C-25.15888315 137.25757531 -25.16327227 139.34180407 -25.17104149 141.42601776 C-25.61203321 163.76882976 -25.61203321 163.76882976 -15.33135986 182.9703064 C-6.49685947 191.30355854 4.91837674 192.30530288 16.50360107 192.29916382 C17.42329681 192.30252243 18.34299255 192.30588104 19.29055786 192.30934143 C22.3163388 192.31880222 25.3420641 192.32079218 28.36785889 192.3218689 C30.48384626 192.32508516 32.5998334 192.32844951 34.71582031 192.33195496 C39.14736445 192.33793426 43.57888912 192.33979612 48.01043701 192.33920288 C53.66690549 192.3391014 59.32324805 192.35274479 64.97968674 192.36997509 C69.34994064 192.38113771 73.72016452 192.38312077 78.09043121 192.38259315 C80.17465905 192.38376719 82.25888781 192.3881563 84.3431015 192.39592552 C106.6859135 192.83691724 106.6859135 192.83691724 125.88739014 182.5562439 C134.22064228 173.7217435 135.22238662 162.3065073 135.21624756 150.72128296 C135.21960617 149.80158722 135.22296478 148.88189148 135.22642517 147.93432617 C135.23588596 144.90854523 135.23787592 141.88281994 135.23895264 138.85702515 C135.2421689 136.74103778 135.24553325 134.62505063 135.2490387 132.50906372 C135.255018 128.07751958 135.25687986 123.64599491 135.25628662 119.21444702 C135.25618514 113.55797855 135.26982853 107.90163598 135.28705883 102.2451973 C135.29822145 97.8749434 135.30020451 93.50471951 135.2996769 89.13445282 C135.30085093 87.05022498 135.30524004 84.96599622 135.31300926 82.88178253 C135.75400098 60.53897054 135.75400098 60.53897054 125.47332764 41.3374939 C116.63882724 33.00424175 105.22359104 32.00249741 93.6383667 32.00863647 C92.71867096 32.00527786 91.79897522 32.00191925 90.85140991 31.99845886 C87.82562897 31.98899807 84.79990368 31.98700812 81.77410889 31.9859314 C79.65812152 31.98271513 77.54213437 31.97935078 75.42614746 31.97584534 C70.99460332 31.96986603 66.56307865 31.96800418 62.13153076 31.96859741 C56.47506229 31.9686989 50.81871972 31.95505551 45.16228104 31.9378252 C40.79202714 31.92666258 36.42180325 31.92467952 32.05153656 31.92520714 C29.96730872 31.92403311 27.88307996 31.91964399 25.79886627 31.91187477 C2.19418898 31.40303459 2.19418898 31.40303459 -17.30401611 43.40390015 Z " fill="#000000" transform="translate(72.92901611328125,271.8460998535156)"/>
<path d="M0 0 C1.48811188 -0.0129007 1.48811188 -0.0129007 3.00628662 -0.02606201 C4.63014282 -0.03245193 4.63014282 -0.03245193 6.2868042 -0.03897095 C7.43211609 -0.04714844 8.57742798 -0.05532593 9.75744629 -0.06375122 C13.55466189 -0.08859513 17.35183994 -0.10512485 21.14910889 -0.11953735 C22.44937767 -0.12486103 23.74964645 -0.13018471 25.08931732 -0.13566971 C30.56243418 -0.15690333 36.03553893 -0.17602911 41.50868607 -0.1872921 C49.3139195 -0.20346583 57.11864996 -0.23647748 64.9236939 -0.29369295 C70.43056043 -0.33266053 75.93729409 -0.35195687 81.44429469 -0.35721266 C84.72247276 -0.36083356 87.99999743 -0.37507974 91.27805328 -0.4053154 C114.73210685 -0.60918665 132.06976376 2.15631543 149.78973389 18.7828064 C161.8615664 31.33007067 167.37598169 46.74226136 167.36151123 63.87142944 C167.36822845 65.02214432 167.37494568 66.17285919 167.38186646 67.35844421 C167.40080493 71.14838018 167.40476879 74.93813861 167.40692139 78.7281189 C167.4117256 80.70602914 167.41653374 82.68393941 167.42184222 84.66184837 C167.43808605 90.87885716 167.44301499 97.09580811 167.44158936 103.31283569 C167.44039005 109.69421592 167.46145859 116.07525679 167.49307668 122.45655125 C167.51936697 127.96176935 167.52995129 133.46687751 167.52867854 138.97215778 C167.52817246 142.24838388 167.5355425 145.5242435 167.55503464 148.80042076 C167.57478705 152.46369363 167.56881913 156.12610941 167.55682373 159.78939819 C167.56806274 160.85217987 167.57930176 161.91496155 167.59088135 163.00994873 C167.4502825 180.03819053 159.8192377 195.52548411 147.96160889 207.4937439 C134.98291953 219.43764586 119.71728606 224.46931496 102.40765381 224.42855835 C100.70821373 224.43622475 100.70821373 224.43622475 98.97444153 224.44404602 C95.25005731 224.45788194 91.52585942 224.4569896 87.80145264 224.4546814 C85.19747347 224.45857186 82.59349493 224.46290726 79.98951721 224.46766663 C74.53838466 224.47585806 69.08730398 224.4749864 63.63616943 224.46957397 C57.3632976 224.46354071 51.09065044 224.47583652 44.81781691 224.49714404 C38.7507001 224.51698397 32.6836872 224.51992191 26.61654091 224.51640892 C24.05028061 224.51692016 21.48401658 224.52212059 18.91777611 224.53222084 C15.31917719 224.54464598 11.72108915 224.53775656 8.12249756 224.5262146 C7.07639313 224.53385834 6.0302887 224.54150208 4.95248413 224.54937744 C-12.54702499 224.42618194 -28.00082527 217.39904883 -40.27276611 205.0640564 C-49.49926843 194.95560901 -57.0067789 181.24312645 -57.07618713 167.20469666 C-57.08334244 166.20828659 -57.09049774 165.21187653 -57.09786987 164.18527222 C-57.10055878 163.09798828 -57.10324768 162.01070435 -57.10601807 160.89047241 C-57.11258926 159.74034164 -57.11916046 158.59021088 -57.12593079 157.40522766 C-57.14566165 153.59358656 -57.15732847 149.78198494 -57.16729736 145.9703064 C-57.17137289 144.66629316 -57.17544842 143.36227993 -57.17964745 142.01875114 C-57.19869614 135.82348282 -57.21292296 129.62822631 -57.22125942 123.43293434 C-57.2310048 116.31002967 -57.25725437 109.187438 -57.29776031 102.06464344 C-57.32807152 96.54253445 -57.34274273 91.02051433 -57.34604043 85.49832386 C-57.3483756 82.20860272 -57.35915204 78.91928936 -57.3825016 75.62964058 C-57.40700871 71.94680476 -57.40590593 68.26477209 -57.39898682 64.58187866 C-57.41179688 63.51281281 -57.42460693 62.44374695 -57.43780518 61.34228516 C-57.32023114 44.04116817 -49.65443621 29.18268197 -37.80010986 16.95858765 C-28.01225921 7.74855286 -13.71479066 0.08881709 0 0 Z M-17.30401611 43.40390015 C-24.24077113 52.28609071 -25.08003606 62.72366742 -25.07427979 73.58651733 C-25.0776384 74.50621307 -25.08099701 75.42590881 -25.0844574 76.37347412 C-25.09391819 79.39925506 -25.09590814 82.42498036 -25.09698486 85.45077515 C-25.10020113 87.56676251 -25.10356548 89.68274966 -25.10707092 91.79873657 C-25.11305023 96.23028071 -25.11491208 100.66180538 -25.11431885 105.09335327 C-25.11421736 110.74982175 -25.12786075 116.40616431 -25.14509106 122.062603 C-25.15625368 126.4328569 -25.15823674 130.80308078 -25.15770912 135.17334747 C-25.15888315 137.25757531 -25.16327227 139.34180407 -25.17104149 141.42601776 C-25.61203321 163.76882976 -25.61203321 163.76882976 -15.33135986 182.9703064 C-6.49685947 191.30355854 4.91837674 192.30530288 16.50360107 192.29916382 C17.42329681 192.30252243 18.34299255 192.30588104 19.29055786 192.30934143 C22.3163388 192.31880222 25.3420641 192.32079218 28.36785889 192.3218689 C30.48384626 192.32508516 32.5998334 192.32844951 34.71582031 192.33195496 C39.14736445 192.33793426 43.57888912 192.33979612 48.01043701 192.33920288 C53.66690549 192.3391014 59.32324805 192.35274479 64.97968674 192.36997509 C69.34994064 192.38113771 73.72016452 192.38312077 78.09043121 192.38259315 C80.17465905 192.38376719 82.25888781 192.3881563 84.3431015 192.39592552 C106.6859135 192.83691724 106.6859135 192.83691724 125.88739014 182.5562439 C134.22064228 173.7217435 135.22238662 162.3065073 135.21624756 150.72128296 C135.21960617 149.80158722 135.22296478 148.88189148 135.22642517 147.93432617 C135.23588596 144.90854523 135.23787592 141.88281994 135.23895264 138.85702515 C135.2421689 136.74103778 135.24553325 134.62505063 135.2490387 132.50906372 C135.255018 128.07751958 135.25687986 123.64599491 135.25628662 119.21444702 C135.25618514 113.55797855 135.26982853 107.90163598 135.28705883 102.2451973 C135.29822145 97.8749434 135.30020451 93.50471951 135.2996769 89.13445282 C135.30085093 87.05022498 135.30524004 84.96599622 135.31300926 82.88178253 C135.75400098 60.53897054 135.75400098 60.53897054 125.47332764 41.3374939 C116.63882724 33.00424175 105.22359104 32.00249741 93.6383667 32.00863647 C92.71867096 32.00527786 91.79897522 32.00191925 90.85140991 31.99845886 C87.82562897 31.98899807 84.79990368 31.98700812 81.77410889 31.9859314 C79.65812152 31.98271513 77.54213437 31.97935078 75.42614746 31.97584534 C70.99460332 31.96986603 66.56307865 31.96800418 62.13153076 31.96859741 C56.47506229 31.9686989 50.81871972 31.95505551 45.16228104 31.9378252 C40.79202714 31.92666258 36.42180325 31.92467952 32.05153656 31.92520714 C29.96730872 31.92403311 27.88307996 31.91964399 25.79886627 31.91187477 C2.19418898 31.40303459 2.19418898 31.40303459 -17.30401611 43.40390015 Z " fill="#000000" transform="translate(72.92901611328125,15.846099853515625)"/>
<path d="M0 0 C5.00685202 2.32460987 7.27137555 5.27911553 10 10 C11.04281673 13.14173996 11.72503225 16.33256718 12.40234375 19.5703125 C12.60678604 20.48779266 12.81122833 21.40527283 13.02186584 22.35055542 C13.67242006 25.27287865 14.30673884 28.19834545 14.9375 31.125 C20.48561253 58.61325343 20.48561253 58.61325343 38.42041016 79.33935547 C50.14765965 86.88892494 64.43906607 88.81331694 77.83496094 91.70043945 C80.70226684 92.32245139 83.56593321 92.9595253 86.4296875 93.59765625 C87.30164764 93.78006363 88.17360779 93.96247101 89.07199097 94.15040588 C95.3885016 95.56303353 99.83382382 97.71981455 104.375 102.5 C106.77303575 107.66500009 106.75381535 112.4002288 106 118 C103.67539013 123.00685202 100.72088447 125.27137555 96 128 C92.85826004 129.04281673 89.66743282 129.72503225 86.4296875 130.40234375 C85.05346725 130.70900719 85.05346725 130.70900719 83.64944458 131.02186584 C80.72712135 131.67242006 77.80165455 132.30673884 74.875 132.9375 C47.38674657 138.48561253 47.38674657 138.48561253 26.66064453 156.42041016 C19.11107506 168.14765965 17.18668306 182.43906607 14.29956055 195.83496094 C13.67754861 198.70226684 13.0404747 201.56593321 12.40234375 204.4296875 C12.21993637 205.30164764 12.03752899 206.17360779 11.84959412 207.07199097 C10.43696647 213.3885016 8.28018545 217.83382382 3.5 222.375 C-1.66500009 224.77303575 -6.4002288 224.75381535 -12 224 C-17.00685202 221.67539013 -19.27137555 218.72088447 -22 214 C-23.04281673 210.85826004 -23.72503225 207.66743282 -24.40234375 204.4296875 C-24.70900719 203.05346725 -24.70900719 203.05346725 -25.02186584 201.64944458 C-25.67242006 198.72712135 -26.30673884 195.80165455 -26.9375 192.875 C-32.48561253 165.38674657 -32.48561253 165.38674657 -50.42041016 144.66064453 C-62.14765965 137.11107506 -76.43906607 135.18668306 -89.83496094 132.29956055 C-92.70226684 131.67754861 -95.56593321 131.0404747 -98.4296875 130.40234375 C-99.30164764 130.21993637 -100.17360779 130.03752899 -101.07199097 129.84959412 C-107.3885016 128.43696647 -111.83382382 126.28018545 -116.375 121.5 C-118.77303575 116.33499991 -118.75381535 111.5997712 -118 106 C-115.67539013 100.99314798 -112.72088447 98.72862445 -108 96 C-104.85826004 94.95718327 -101.66743282 94.27496775 -98.4296875 93.59765625 C-97.51220734 93.39321396 -96.59472717 93.18877167 -95.64944458 92.97813416 C-92.72712135 92.32757994 -89.80165455 91.69326116 -86.875 91.0625 C-59.38674657 85.51438747 -59.38674657 85.51438747 -38.66064453 67.57958984 C-31.11107506 55.85234035 -29.18668306 41.56093393 -26.29956055 28.16503906 C-25.67754861 25.29773316 -25.0404747 22.43406679 -24.40234375 19.5703125 C-24.21993637 18.69835236 -24.03752899 17.82639221 -23.84959412 16.92800903 C-22.43696647 10.6114984 -20.28018545 6.16617618 -15.5 1.625 C-10.33499991 -0.77303575 -5.5997712 -0.75381535 0 0 Z M-7 79 C-8.08591613 80.58224899 -9.0924146 82.21920412 -10.0625 83.875 C-17.0561151 95.09932053 -26.7648042 105.42005322 -39 111 C-39 111.66 -39 112.32 -39 113 C-37.41775101 114.08591613 -35.78079588 115.0924146 -34.125 116.0625 C-22.90067947 123.0561151 -12.57994678 132.7648042 -7 145 C-6.34 145 -5.68 145 -5 145 C-3.91408387 143.41775101 -2.9075854 141.78079588 -1.9375 140.125 C5.0561151 128.90067947 14.7648042 118.57994678 27 113 C27 112.34 27 111.68 27 111 C25.41775101 109.91408387 23.78079588 108.9075854 22.125 107.9375 C10.90067947 100.9438849 0.57994678 91.2351958 -5 79 C-5.66 79 -6.32 79 -7 79 Z " fill="#000000" transform="translate(390,16)"/>
</svg>
